<svg width="118" height="118" viewBox="0 0 118 118" fill="none" xmlns="http://www.w3.org/2000/svg">
<g filter="url(#filter0_d_52_76)">
<circle cx="59" cy="55" r="50" fill="#227E39" stroke="#5AC73F" stroke-width="10"/>
</g>
<path d="M58.0246 36.3182C58.2594 35.2787 59.7406 35.2787 59.9754 36.3182L62.0499 45.5022C62.2021 46.176 62.9753 46.4962 63.5593 46.1274L71.5203 41.1003C72.4214 40.5312 73.4688 41.5786 72.8997 42.4797L67.8726 50.4407C67.5038 51.0247 67.824 51.7979 68.4978 51.9501L77.6818 54.0246C78.7213 54.2594 78.7213 55.7406 77.6818 55.9754L68.4978 58.0499C67.824 58.2021 67.5038 58.9753 67.8726 59.5593L72.8997 67.5203C73.4688 68.4214 72.4214 69.4688 71.5203 68.8997L63.5593 63.8726C62.9753 63.5038 62.2021 63.824 62.0499 64.4978L59.9754 73.6818C59.7406 74.7213 58.2594 74.7213 58.0246 73.6818L55.9501 64.4978C55.7979 63.824 55.0247 63.5038 54.4407 63.8726L46.4797 68.8997C45.5786 69.4688 44.5312 68.4214 45.1003 67.5203L50.1274 59.5593C50.4962 58.9753 50.176 58.2021 49.5022 58.0499L40.3182 55.9754C39.2787 55.7406 39.2787 54.2594 40.3182 54.0246L49.5022 51.9501C50.176 51.7979 50.4962 51.0247 50.1274 50.4407L45.1003 42.4797C44.5312 41.5786 45.5786 40.5312 46.4797 41.1003L54.4407 46.1274C55.0247 46.4962 55.7979 46.176 55.9501 45.5022L58.0246 36.3182Z" fill="#5AC73F"/>
<defs>
<filter id="filter0_d_52_76" x="0" y="0" width="118" height="118" filterUnits="userSpaceOnUse" color-interpolation-filters="sRGB">
<feFlood flood-opacity="0" result="BackgroundImageFix"/>
<feColorMatrix in="SourceAlpha" type="matrix" values="0 0 0 0 0 0 0 0 0 0 0 0 0 0 0 0 0 0 127 0" result="hardAlpha"/>
<feOffset dy="4"/>
<feGaussianBlur stdDeviation="2"/>
<feComposite in2="hardAlpha" operator="out"/>
<feColorMatrix type="matrix" values="0 0 0 0 0 0 0 0 0 0 0 0 0 0 0 0 0 0 0.25 0"/>
<feBlend mode="normal" in2="BackgroundImageFix" result="effect1_dropShadow_52_76"/>
<feBlend mode="normal" in="SourceGraphic" in2="effect1_dropShadow_52_76" result="shape"/>
</filter>
</defs>
</svg>
