<svg width="110" height="110" viewBox="0 0 110 110" fill="none" xmlns="http://www.w3.org/2000/svg">
<circle cx="55" cy="55" r="50" fill="#857B7F" stroke="#BABABA" stroke-width="10"/>
<path d="M54.0621 34.5345C54.3843 33.6639 55.6157 33.6639 55.9379 34.5345L61.0525 48.3567C61.1538 48.6304 61.3696 48.8462 61.6433 48.9475L75.4655 54.0621C76.3361 54.3843 76.3361 55.6157 75.4655 55.9379L61.6433 61.0525C61.3696 61.1538 61.1538 61.3696 61.0525 61.6433L55.9379 75.4655C55.6157 76.3361 54.3843 76.3361 54.0621 75.4655L48.9475 61.6433C48.8462 61.3696 48.6304 61.1538 48.3567 61.0525L34.5345 55.9379C33.6639 55.6157 33.6639 54.3843 34.5345 54.0621L48.3567 48.9475C48.6304 48.8462 48.8462 48.6304 48.9475 48.3567L54.0621 34.5345Z" fill="#BABABA"/>
</svg>
