<svg width="110" height="110" viewBox="0 0 110 110" fill="none" xmlns="http://www.w3.org/2000/svg">
<circle cx="55" cy="55" r="55" fill="#FE8D00"/>
<circle cx="55" cy="55" r="50" stroke="#FCCA0C" stroke-opacity="0.82" stroke-width="10"/>
<path d="M54.0489 34.9271C54.3483 34.0057 55.6517 34.0057 55.9511 34.9271L59.9393 47.2016C60.0732 47.6136 60.4571 47.8926 60.8904 47.8926H73.7966C74.7653 47.8926 75.1681 49.1322 74.3844 49.7016L63.943 57.2877C63.5925 57.5424 63.4459 57.9937 63.5798 58.4058L67.568 70.6803C67.8674 71.6016 66.8129 72.3678 66.0292 71.7984L55.5878 64.2123C55.2373 63.9576 54.7627 63.9576 54.4122 64.2123L43.9708 71.7984C43.1871 72.3678 42.1326 71.6017 42.432 70.6803L46.4202 58.4058C46.5541 57.9937 46.4075 57.5424 46.057 57.2877L35.6156 49.7016C34.8319 49.1322 35.2347 47.8926 36.2034 47.8926H49.1096C49.5429 47.8926 49.9268 47.6136 50.0607 47.2016L54.0489 34.9271Z" fill="#FCCA0C" fill-opacity="0.82"/>
</svg>
