<svg width="110" height="110" viewBox="0 0 110 110" fill="none" xmlns="http://www.w3.org/2000/svg">
<circle cx="55" cy="55" r="50" fill="#277D8E" stroke="#3FBEC7" stroke-width="10"/>
<path d="M54.0384 35.3695C54.3145 34.4021 55.6855 34.4021 55.9616 35.3695L59.1269 46.4608C59.275 46.9798 59.8082 47.2876 60.3317 47.1564L71.5197 44.352C72.4956 44.1074 73.1811 45.2947 72.4813 46.0175L64.4586 54.3044C64.0832 54.6922 64.0832 55.3078 64.4586 55.6956L72.4813 63.9825C73.1811 64.7053 72.4956 65.8926 71.5197 65.648L60.3317 62.8436C59.8082 62.7124 59.275 63.0202 59.1269 63.5392L55.9616 74.6305C55.6855 75.5979 54.3145 75.5979 54.0384 74.6305L50.8731 63.5392C50.725 63.0202 50.1918 62.7124 49.6683 62.8436L38.4803 65.648C37.5044 65.8926 36.8189 64.7053 37.5187 63.9825L45.5414 55.6956C45.9168 55.3078 45.9168 54.6922 45.5414 54.3044L37.5187 46.0175C36.8189 45.2947 37.5044 44.1074 38.4803 44.352L49.6683 47.1564C50.1918 47.2876 50.725 46.9798 50.8731 46.4608L54.0384 35.3695Z" fill="#3FBEC7"/>
</svg>
